<svg width="156" height="32" viewBox="0 0 156 32" fill="none" xmlns="http://www.w3.org/2000/svg">
<path d="M48.8628 24.3896C47.8672 24.3896 46.9041 24.2705 45.9734 24.0325C45.0428 23.7944 44.1987 23.4265 43.4412 22.9287C42.6837 22.4309 42.0777 21.7924 41.6232 21.0133C41.1687 20.2125 40.9306 19.2602 40.909 18.1564H43.636C43.636 18.2214 43.6576 18.3945 43.7009 18.6759C43.7442 18.9572 43.8524 19.2819 44.0256 19.6498C44.2204 20.0177 44.5017 20.3748 44.8696 20.7211C45.2592 21.0674 45.7895 21.3596 46.4604 21.5976C47.153 21.8141 48.0187 21.9223 49.0575 21.9223C49.8583 21.9223 50.5293 21.8357 51.0703 21.6626C51.6114 21.4894 52.0443 21.2622 52.3689 20.9808C52.6935 20.6995 52.9208 20.4073 53.0507 20.1043C53.2022 19.8013 53.2779 19.5307 53.2779 19.2927C53.2779 18.6217 53.0615 18.0807 52.6286 17.6695C52.2174 17.2582 51.6547 16.9336 50.9405 16.6955C50.2263 16.4358 49.4363 16.2086 48.5706 16.0138C47.7265 15.7973 46.8824 15.5701 46.0384 15.332C45.1943 15.0723 44.4151 14.7368 43.7009 14.3256C43.0084 13.9144 42.4673 13.3842 42.0777 12.7349C41.6881 12.064 41.515 11.2091 41.5583 10.1702C41.6232 9.17463 41.9695 8.31974 42.5971 7.60552C43.2248 6.89131 44.0797 6.35023 45.1618 5.98231C46.2656 5.59273 47.5209 5.39795 48.9277 5.39795C50.2046 5.39795 51.3733 5.6252 52.4338 6.0797C53.516 6.5342 54.3817 7.21595 55.031 8.12495C55.7019 9.01231 56.0266 10.1486 56.0049 11.5337H53.3753C53.3969 10.7762 53.2454 10.1702 52.9208 9.7157C52.5962 9.23956 52.1741 8.87163 51.6547 8.61191C51.1569 8.3522 50.6375 8.17906 50.0964 8.09249C49.5553 7.98427 49.0684 7.93016 48.6355 7.93016C47.4235 7.93016 46.4171 8.15741 45.6163 8.61191C44.8372 9.04477 44.4368 9.66159 44.4151 10.4624C44.3935 11.155 44.5991 11.7068 45.032 12.1181C45.4648 12.5293 46.0384 12.8539 46.7526 13.092C47.4668 13.3301 48.2568 13.5465 49.1225 13.7413C49.9882 13.9361 50.8431 14.1525 51.6872 14.3906C52.5312 14.6286 53.2995 14.9533 53.9921 15.3645C54.7063 15.7541 55.2582 16.2843 55.6478 16.9552C56.059 17.6262 56.243 18.4919 56.1997 19.5524C56.1564 20.5696 55.8101 21.4353 55.1608 22.1495C54.5115 22.8637 53.6458 23.4156 52.5637 23.8052C51.4815 24.1948 50.2479 24.3896 48.8628 24.3896ZM63.5379 24.3246C62.6505 24.3246 61.9039 24.184 61.2979 23.9026C60.7135 23.6212 60.2374 23.2425 59.8694 22.7664C59.5231 22.2902 59.2634 21.76 59.0903 21.1756C58.9171 20.5912 58.7981 19.9852 58.7332 19.3576C58.6682 18.73 58.6358 18.124 58.6358 17.5396V10.7221H61.2979V17.5396C61.2979 18.3187 61.3736 19.0438 61.5251 19.7147C61.6766 20.364 61.9904 20.8942 62.4666 21.3055C62.9427 21.7167 63.6461 21.9223 64.5768 21.9223C65.4858 21.9223 66.1891 21.7167 66.6869 21.3055C67.1847 20.8726 67.531 20.3315 67.7258 19.6822C67.9422 19.033 68.0613 18.362 68.0829 17.6695V10.7221H70.8748V24H68.5699L68.1154 21.2405H68.0504C67.9855 21.457 67.8556 21.7383 67.6609 22.0846C67.4661 22.4092 67.1955 22.7447 66.8493 23.091C66.503 23.4373 66.0485 23.7295 65.4858 23.9675C64.9447 24.2056 64.2954 24.3246 63.5379 24.3246ZM81.2999 24.3246C80.4559 24.3246 79.7525 24.1948 79.1898 23.9351C78.627 23.6537 78.1617 23.3291 77.7938 22.9611C77.4475 22.5932 77.1878 22.2577 77.0146 21.9547C76.8415 21.6301 76.7333 21.4245 76.69 21.3379H76.6251V29.6813H73.8656V10.7221H76.203L76.6575 13.8387H76.7225C76.7441 13.7521 76.8307 13.5465 76.9822 13.2218C77.1337 12.8972 77.3826 12.5401 77.7289 12.1505C78.0751 11.761 78.5296 11.4255 79.0924 11.1441C79.6767 10.8628 80.4018 10.7221 81.2675 10.7221C82.5877 10.7221 83.659 11.0143 84.4814 11.5986C85.3255 12.183 85.9532 12.9946 86.3644 14.0335C86.7756 15.0507 86.9812 16.2302 86.9812 17.5721C86.9812 18.9139 86.7648 20.0935 86.3319 21.1107C85.9207 22.1279 85.293 22.9179 84.449 23.4806C83.6265 24.0433 82.5769 24.3246 81.2999 24.3246ZM80.5857 21.9872C81.538 21.9872 82.2847 21.7816 82.8258 21.3704C83.3885 20.9375 83.778 20.3856 83.9945 19.7147C84.2325 19.0221 84.3516 18.2971 84.3516 17.5396C84.3516 16.7821 84.2217 16.0679 83.962 15.397C83.7239 14.726 83.3127 14.185 82.7284 13.7737C82.1656 13.3625 81.4081 13.1569 80.4559 13.1569C79.6334 13.1569 78.9409 13.3409 78.3781 13.7088C77.8154 14.0551 77.3934 14.5637 77.112 15.2346C76.8307 15.9056 76.69 16.6739 76.69 17.5396C76.69 18.427 76.8307 19.2061 77.112 19.877C77.415 20.548 77.8587 21.0674 78.4431 21.4353C79.0274 21.8032 79.7416 21.9872 80.5857 21.9872ZM97.0248 24.3246C96.1808 24.3246 95.4774 24.1948 94.9147 23.9351C94.3519 23.6537 93.8866 23.3291 93.5187 22.9611C93.1724 22.5932 92.9127 22.2577 92.7395 21.9547C92.5664 21.6301 92.4582 21.4245 92.4149 21.3379H92.35V29.6813H89.5905V10.7221H91.9279L92.3824 13.8387H92.4474C92.469 13.7521 92.5556 13.5465 92.7071 13.2218C92.8586 12.8972 93.1075 12.5401 93.4538 12.1505C93.8 11.761 94.2545 11.4255 94.8173 11.1441C95.4016 10.8628 96.1267 10.7221 96.9924 10.7221C98.3126 10.7221 99.3839 11.0143 100.206 11.5986C101.05 12.183 101.678 12.9946 102.089 14.0335C102.5 15.0507 102.706 16.2302 102.706 17.5721C102.706 18.9139 102.49 20.0935 102.057 21.1107C101.646 22.1279 101.018 22.9179 100.174 23.4806C99.3514 24.0433 98.3018 24.3246 97.0248 24.3246ZM96.3106 21.9872C97.2629 21.9872 98.0096 21.7816 98.5507 21.3704C99.1134 20.9375 99.5029 20.3856 99.7194 19.7147C99.9574 19.0221 100.076 18.2971 100.076 17.5396C100.076 16.7821 99.9466 16.0679 99.6869 15.397C99.4488 14.726 99.0376 14.185 98.4533 13.7737C97.8906 13.3625 97.1331 13.1569 96.1808 13.1569C95.3583 13.1569 94.6658 13.3409 94.103 13.7088C93.5403 14.0551 93.1183 14.5637 92.8369 15.2346C92.5556 15.9056 92.4149 16.6739 92.4149 17.5396C92.4149 18.427 92.5556 19.2061 92.8369 19.877C93.1399 20.548 93.5836 21.0674 94.168 21.4353C94.7523 21.8032 95.4665 21.9872 96.3106 21.9872ZM105.315 24V5.72259H107.977V24H105.315ZM111.245 24V10.7221H113.939V24H111.245ZM112.608 8.87163C111.981 8.87163 111.548 8.70931 111.31 8.38466C111.093 8.06002 110.985 7.68127 110.985 7.24841C110.985 6.8372 111.093 6.48009 111.31 6.17709C111.548 5.85245 111.981 5.69013 112.608 5.69013C113.236 5.69013 113.647 5.85245 113.842 6.17709C114.058 6.48009 114.167 6.8372 114.167 7.24841C114.167 7.68127 114.058 8.06002 113.842 8.38466C113.647 8.70931 113.236 8.87163 112.608 8.87163ZM122.886 24.3246C121.393 24.3246 120.17 24 119.218 23.3507C118.265 22.6798 117.562 21.8249 117.108 20.786C116.653 19.7255 116.426 18.6326 116.426 17.5071C116.404 16.2302 116.642 15.0723 117.14 14.0335C117.659 12.9946 118.395 12.1722 119.348 11.5662C120.322 10.9602 121.479 10.6572 122.821 10.6572C123.99 10.6572 125.029 10.9169 125.938 11.4363C126.847 11.9341 127.572 12.6483 128.113 13.579C128.654 14.488 128.946 15.5701 128.99 16.8254C129.011 16.8903 129.022 17.0202 129.022 17.215C129.022 17.3881 129.022 17.5396 129.022 17.6695H118.99C118.99 19.0546 119.326 20.1367 119.997 20.9159C120.689 21.6734 121.642 22.0521 122.854 22.0521C123.763 22.0521 124.531 21.8249 125.159 21.3704C125.808 20.8942 126.208 20.2666 126.36 19.4875H128.99C128.86 20.3965 128.535 21.2189 128.016 21.9547C127.496 22.6906 126.804 23.275 125.938 23.7078C125.072 24.119 124.055 24.3246 122.886 24.3246ZM119.088 16.3384H126.295C126.273 16.1004 126.208 15.7865 126.1 15.397C126.014 15.0074 125.84 14.6286 125.581 14.2607C125.321 13.8711 124.964 13.5465 124.509 13.2868C124.055 13.0271 123.471 12.8972 122.756 12.8972C122.107 12.8972 121.555 13.0054 121.101 13.2218C120.646 13.4383 120.278 13.7305 119.997 14.0984C119.716 14.4447 119.499 14.8234 119.348 15.2346C119.218 15.6242 119.131 15.9921 119.088 16.3384ZM131.847 24V10.7221H134.347L134.574 14.5529L134.542 17.4097V24H131.847ZM134.542 18.0266L134.445 15.1048C134.466 14.6286 134.574 14.1417 134.769 13.6439C134.964 13.1245 135.256 12.6483 135.646 12.2155C136.057 11.761 136.576 11.4038 137.204 11.1441C137.853 10.8628 138.632 10.7221 139.541 10.7221H140.093V13.7088H139.509C138.535 13.7088 137.723 13.8062 137.074 14.001C136.425 14.1741 135.916 14.4447 135.548 14.8126C135.18 15.1805 134.921 15.635 134.769 16.1761C134.618 16.7172 134.542 17.334 134.542 18.0266ZM147.57 24.3246C146.964 24.3246 146.369 24.2381 145.785 24.0649C145.222 23.9134 144.692 23.6862 144.194 23.3832C143.718 23.0802 143.285 22.7339 142.895 22.3443C142.527 21.9547 142.235 21.5327 142.019 21.0782C141.824 20.6021 141.727 20.1043 141.727 19.5849H144.259C144.259 19.6065 144.27 19.758 144.291 20.0394C144.335 20.3207 144.454 20.6454 144.648 21.0133C144.843 21.3596 145.157 21.6626 145.59 21.9223C146.044 22.182 146.683 22.3119 147.505 22.3119C148.133 22.3119 148.663 22.2361 149.096 22.0846C149.551 21.9331 149.897 21.7275 150.135 21.4678C150.373 21.1864 150.481 20.851 150.46 20.4614C150.46 19.9203 150.254 19.4983 149.843 19.1953C149.432 18.8923 148.901 18.6542 148.252 18.4811C147.603 18.2863 146.921 18.1023 146.207 17.9292C145.493 17.756 144.811 17.5288 144.161 17.2474C143.512 16.9444 142.982 16.544 142.571 16.0462C142.181 15.5268 141.997 14.8342 142.019 13.9685C142.019 12.7998 142.506 11.9016 143.48 11.274C144.475 10.6247 145.731 10.3001 147.246 10.3001C147.981 10.3001 148.696 10.3866 149.388 10.5598C150.081 10.7329 150.698 11.0035 151.239 11.3714C151.801 11.7393 152.245 12.2263 152.57 12.8323C152.916 13.4383 153.078 14.185 153.057 15.0723H150.557C150.579 14.5096 150.481 14.0551 150.265 13.7088C150.07 13.3625 149.799 13.1028 149.453 12.9297C149.107 12.7349 148.739 12.605 148.349 12.5401C147.981 12.4535 147.624 12.4102 147.278 12.4102C146.412 12.4102 145.731 12.5726 145.233 12.8972C144.735 13.2002 144.486 13.6114 144.486 14.1308C144.486 14.6719 144.692 15.094 145.103 15.397C145.514 15.7 146.044 15.938 146.694 16.1112C147.343 16.2843 148.036 16.4575 148.771 16.6306C149.507 16.8037 150.2 17.0418 150.849 17.3448C151.498 17.6262 152.029 18.0266 152.44 18.546C152.851 19.0654 153.057 19.758 153.057 20.6237C153.057 21.4678 152.819 22.1604 152.343 22.7014C151.888 23.2425 151.25 23.6537 150.427 23.9351C149.605 24.1948 148.652 24.3246 147.57 24.3246Z" fill="url(#paint0_linear_73_17)"/>
<rect x="0.5" y="0.5" width="31" height="31" rx="7.5" fill="url(#paint1_linear_73_17)"/>
<rect x="0.5" y="0.5" width="31" height="31" rx="7.5" stroke="#4BA3FA"/>
<path d="M9.3335 22.6665L22.6668 9.33317" stroke="white" stroke-opacity="0.5" stroke-width="2.66665" stroke-linecap="round" stroke-linejoin="round"/>
<path d="M22.6668 22.6665V9.33317H9.3335" stroke="#F2F2F2" stroke-width="2.66665" stroke-linecap="round" stroke-linejoin="round"/>
<defs>
<linearGradient id="paint0_linear_73_17" x1="40" y1="15.5" x2="156" y2="15.5" gradientUnits="userSpaceOnUse">
<stop stop-color="#0073E6"/>
<stop offset="1" stop-color="#338BE3"/>
</linearGradient>
<linearGradient id="paint1_linear_73_17" x1="23.5" y1="11.5" x2="4.5" y2="32" gradientUnits="userSpaceOnUse">
<stop stop-color="#0073E6"/>
<stop offset="1" stop-color="#3C8FE3"/>
</linearGradient>
</defs>
</svg>
